<svg xmlns="http://www.w3.org/2000/svg" xmlns:xlink="http://www.w3.org/1999/xlink" width="500" zoomAndPan="magnify" viewBox="0 0 375 374.999991" height="500" preserveAspectRatio="xMidYMid meet" version="1.0"><defs><clipPath id="0487e3422d"><path d="M 64.007812 170.1875 L 133.882812 170.1875 L 133.882812 205 L 64.007812 205 Z M 64.007812 170.1875 " clip-rule="nonzero"/></clipPath><clipPath id="215181418a"><path d="M 133.867188 187.585938 C 133.867188 197.195312 126.082031 204.984375 116.46875 204.984375 L 81.703125 204.984375 C 72.105469 204.984375 64.152344 197.3125 64.082031 187.71875 C 64.007812 178.046875 71.828125 170.1875 81.476562 170.1875 L 116.46875 170.1875 C 126.078125 170.1875 133.867188 177.976562 133.867188 187.585938 " clip-rule="nonzero"/></clipPath><clipPath id="dc0bf63271"><path d="M 94.609375 96.125 L 133.867188 96.125 L 133.867188 160 L 94.609375 160 Z M 94.609375 96.125 " clip-rule="nonzero"/></clipPath><clipPath id="d0708032b4"><path d="M 133.863281 124.144531 L 133.863281 159.992188 L 99.804688 125.933594 C 93.015625 119.136719 93.015625 108.125 99.804688 101.328125 C 106.597656 94.53125 117.621094 94.53125 124.414062 101.324219 C 130.464844 107.375 133.863281 115.585938 133.863281 124.144531 " clip-rule="nonzero"/></clipPath><clipPath id="ed829349b8"><path d="M 94.609375 215.175781 L 133.867188 215.175781 L 133.867188 279 L 94.609375 279 Z M 94.609375 215.175781 " clip-rule="nonzero"/></clipPath><clipPath id="cb4e98c38f"><path d="M 133.863281 215.175781 L 133.863281 251.023438 C 133.863281 259.582031 130.464844 267.792969 124.414062 273.84375 C 117.621094 280.636719 106.609375 280.636719 99.804688 273.839844 C 93.003906 267.042969 93.015625 256.027344 99.804688 249.234375 Z M 133.863281 215.175781 " clip-rule="nonzero"/></clipPath><clipPath id="9d8b196829"><path d="M 168.664062 65.523438 L 203.757812 65.523438 L 203.757812 131.324219 L 168.664062 131.324219 Z M 168.664062 65.523438 " clip-rule="nonzero"/></clipPath><clipPath id="04186978c0"><path d="M 203.464844 83.21875 C 203.464844 91.632812 200.125 99.707031 194.171875 105.65625 L 168.667969 131.164062 L 168.667969 82.992188 C 168.667969 73.339844 176.53125 65.523438 186.203125 65.597656 C 195.796875 65.671875 203.464844 73.625 203.464844 83.21875 " clip-rule="nonzero"/></clipPath><clipPath id="ee07d96e21"><path d="M 168.664062 244 L 203.757812 244 L 203.757812 309.71875 L 168.664062 309.71875 Z M 168.664062 244 " clip-rule="nonzero"/></clipPath><clipPath id="4393ffccd0"><path d="M 194.015625 269.347656 C 200.070312 275.398438 203.464844 283.613281 203.464844 292.171875 C 203.464844 301.113281 196.714844 308.484375 188.027344 309.457031 C 188.027344 309.457031 188.023438 309.464844 188.019531 309.457031 C 187.363281 309.46875 186.714844 309.472656 186.066406 309.472656 C 185.417969 309.472656 184.769531 309.46875 184.113281 309.457031 C 184.109375 309.464844 184.105469 309.457031 184.105469 309.457031 C 175.417969 308.488281 168.667969 301.121094 168.667969 292.175781 L 168.667969 244 Z M 194.015625 269.347656 " clip-rule="nonzero"/></clipPath><clipPath id="a761658a65"><path d="M 168.664062 96.230469 L 308.066406 96.230469 L 308.066406 279 L 168.664062 279 Z M 168.664062 96.230469 " clip-rule="nonzero"/></clipPath><clipPath id="452f079240"><path d="M 308.027344 186.667969 C 308.550781 196.667969 300.371094 204.984375 290.355469 204.984375 L 228.226562 204.984375 C 228.171875 204.984375 228.140625 205.050781 228.179688 205.089844 L 272.332031 249.234375 C 279.121094 256.027344 279.121094 267.046875 272.324219 273.84375 C 265.5625 280.601562 254.628906 280.640625 247.824219 273.949219 C 247.785156 273.917969 247.753906 273.882812 247.71875 273.84375 L 247.714844 273.84375 C 247.675781 273.804688 247.640625 273.769531 247.605469 273.734375 L 203.464844 229.589844 L 203.464844 229.585938 L 186.070312 212.191406 L 186.066406 212.191406 L 178.863281 204.984375 L 178.859375 204.984375 L 173.761719 199.886719 C 170.5 196.621094 168.667969 192.199219 168.667969 187.585938 C 168.667969 182.96875 170.5 178.546875 173.761719 175.28125 L 203.464844 145.578125 L 247.617188 101.433594 L 247.722656 101.332031 L 247.832031 101.222656 C 254.632812 94.53125 265.566406 94.570312 272.332031 101.335938 C 279.128906 108.128906 279.128906 119.144531 272.335938 125.9375 L 228.1875 170.085938 C 228.148438 170.125 228.175781 170.195312 228.230469 170.195312 L 290.65625 170.195312 C 299.957031 170.195312 307.550781 177.492188 308.027344 186.675781 " clip-rule="nonzero"/></clipPath></defs><g clip-path="url(#0487e3422d)"><g clip-path="url(#215181418a)"><path fill="#481c4b" d="M 64.007812 170.1875 L 133.882812 170.1875 L 133.882812 204.984375 L 64.007812 204.984375 Z M 64.007812 170.1875 " fill-opacity="1" fill-rule="nonzero"/></g></g><g clip-path="url(#dc0bf63271)"><g clip-path="url(#d0708032b4)"><path fill="#2dcf42" d="M 93.015625 94.53125 L 133.867188 94.53125 L 133.867188 159.957031 L 93.015625 159.957031 Z M 93.015625 94.53125 " fill-opacity="1" fill-rule="nonzero"/></g></g><g clip-path="url(#ed829349b8)"><g clip-path="url(#cb4e98c38f)"><path fill="#efd109" d="M 93.015625 215.175781 L 133.867188 215.175781 L 133.867188 280.605469 L 93.015625 280.605469 Z M 93.015625 215.175781 " fill-opacity="1" fill-rule="nonzero"/></g></g><g clip-path="url(#9d8b196829)"><g clip-path="url(#04186978c0)"><path fill="#e01d5b" d="M 166.226562 63.085938 L 310.992188 63.085938 L 310.992188 312.15625 L 166.226562 312.15625 Z M 166.226562 63.085938 " fill-opacity="1" fill-rule="nonzero"/></g></g><g clip-path="url(#ee07d96e21)"><g clip-path="url(#4393ffccd0)"><path fill="#2bb1eb" d="M 166.226562 63.085938 L 310.992188 63.085938 L 310.992188 312.15625 L 166.226562 312.15625 Z M 166.226562 63.085938 " fill-opacity="1" fill-rule="nonzero"/></g></g><g clip-path="url(#a761658a65)"><g clip-path="url(#452f079240)"><path fill="#481c4b" d="M 166.226562 63.085938 L 310.992188 63.085938 L 310.992188 312.15625 L 166.226562 312.15625 Z M 166.226562 63.085938 " fill-opacity="1" fill-rule="nonzero"/></g></g></svg>