<svg xmlns="http://www.w3.org/2000/svg" xmlns:xlink="http://www.w3.org/1999/xlink" width="500" zoomAndPan="magnify" viewBox="0 0 375 112.499997" height="150" preserveAspectRatio="xMidYMid meet" version="1.0"><defs><g/><clipPath id="75d92dcb2c"><path d="M 237 8.394531 L 366.5625 8.394531 L 366.5625 112.003906 L 237 112.003906 Z M 237 8.394531 " clip-rule="nonzero"/></clipPath><clipPath id="bb06000900"><path d="M 8.164062 0 L 141 0 L 141 107.523438 L 8.164062 107.523438 Z M 8.164062 0 " clip-rule="nonzero"/></clipPath><clipPath id="ca752d2dee"><path d="M 67 25 L 323 25 L 323 112.003906 L 67 112.003906 Z M 67 25 " clip-rule="nonzero"/></clipPath></defs><g clip-path="url(#75d92dcb2c)"><path fill="#7692ab" d="M 279.480469 8.535156 C 264.078125 8.535156 249.617188 10.351562 237.050781 13.542969 C 245.699219 12.230469 254.945312 11.523438 264.5625 11.523438 C 312.75 11.523438 351.820312 29.3125 351.820312 51.261719 C 351.820312 66.1875 333.734375 79.191406 306.992188 85.988281 C 341.703125 80.738281 366.738281 65.839844 366.738281 48.265625 C 366.738281 26.324219 327.667969 8.535156 279.480469 8.535156 Z M 281.097656 92.582031 L 281.097656 92.902344 C 300.335938 92.902344 301.730469 96.023438 301.730469 113.546875 L 302.054688 113.546875 C 302.054688 96.023438 303.457031 92.902344 322.695312 92.902344 L 322.695312 92.582031 C 303.457031 92.582031 302.054688 89.46875 302.054688 71.949219 L 301.730469 71.949219 C 301.730469 89.46875 300.335938 92.582031 281.097656 92.582031 " fill-opacity="1" fill-rule="evenodd"/></g><g clip-path="url(#bb06000900)"><path fill="#7692ab" d="M 97.324219 107.121094 C 113.042969 107.121094 127.804688 105.269531 140.632812 102.007812 C 131.804688 103.351562 122.363281 104.070312 112.550781 104.070312 C 63.367188 104.070312 23.492188 85.914062 23.492188 63.511719 C 23.492188 48.277344 41.949219 35.003906 69.246094 28.066406 C 33.816406 33.425781 8.265625 48.632812 8.265625 66.570312 C 8.265625 88.964844 48.140625 107.121094 97.324219 107.121094 Z M 95.671875 21.339844 L 95.671875 21.011719 C 76.035156 21.011719 74.613281 17.824219 74.613281 -0.0585938 L 74.285156 -0.0585938 C 74.285156 17.824219 72.851562 21.011719 53.214844 21.011719 L 53.214844 21.339844 C 72.851562 21.339844 74.285156 24.515625 74.285156 42.398438 L 74.613281 42.398438 C 74.613281 24.515625 76.035156 21.339844 95.671875 21.339844 " fill-opacity="1" fill-rule="evenodd"/></g><path stroke-linecap="butt" transform="matrix(0.841758, 0, 0, 0.841758, 79.354812, 14.764681)" fill="none" stroke-linejoin="miter" d="M 18.377503 15.570289 C 22.832466 15.570289 26.498529 16.470563 29.361771 18.275751 C 32.229653 20.080939 33.696079 22.753917 33.761047 26.294684 L 33.761047 26.902601 L 23.282603 26.902601 L 23.282603 26.703056 C 23.282603 25.691408 22.911356 24.846822 22.168862 24.169296 C 21.431009 23.496411 20.298706 23.157648 18.785874 23.157648 C 17.291606 23.157648 16.154662 23.380396 15.361122 23.825893 C 14.572222 24.262108 14.173132 24.800416 14.173132 25.440817 C 14.173132 26.350372 14.71608 27.023257 15.792696 27.468753 C 16.873953 27.904968 18.609532 28.359745 21.008715 28.828445 C 23.81163 29.403877 26.11336 30.007154 27.918549 30.633633 C 29.723737 31.250831 31.301536 32.267119 32.651947 33.687139 C 34.002357 35.102517 34.693805 37.028361 34.726289 39.455388 C 34.726289 43.576228 33.334113 46.634375 30.549761 48.625186 C 27.765409 50.611357 24.043659 51.604443 19.389151 51.604443 C 13.950383 51.604443 9.722809 50.694888 6.697147 48.875778 C 3.680766 47.052027 2.177216 43.831461 2.177216 39.209436 L 12.753112 39.209436 C 12.753112 40.963578 13.20789 42.137646 14.112804 42.731642 C 15.026999 43.316355 16.447019 43.608712 18.377503 43.608712 C 19.792882 43.608712 20.96231 43.455573 21.885786 43.153935 C 22.818544 42.847656 23.282603 42.225818 23.282603 41.288419 C 23.282603 40.439192 22.767498 39.803432 21.737287 39.381138 C 20.707077 38.963485 19.031826 38.513349 16.706892 38.035368 C 13.876134 37.436732 11.527997 36.805613 9.662482 36.146649 C 7.810888 35.487686 6.191323 34.397148 4.808428 32.884317 C 3.425533 31.357564 2.729446 29.297144 2.729446 26.703056 C 2.729446 22.888494 4.205152 20.080939 7.156565 18.275751 C 10.112618 16.470563 13.852931 15.570289 18.377503 15.570289 Z M 70.203572 51.001167 L 70.203572 38.44374 C 70.203572 36.893784 70.2639 35.302063 70.375274 33.659295 C 70.500569 32.021168 70.630506 30.647555 70.760442 29.533814 C 70.890379 28.420073 70.973909 27.714704 71.006393 27.408425 L 70.811489 27.408425 L 64.384277 51.001167 L 55.622849 51.001167 L 49.144591 27.459472 L 48.949686 27.459472 C 48.98217 27.76111 49.070341 28.461838 49.21884 29.557017 C 49.367339 30.652195 49.506557 32.021168 49.641134 33.659295 C 49.780351 35.302063 49.84996 36.893784 49.84996 38.44374 L 49.84996 51.001167 L 39.580342 51.001167 L 39.580342 16.173566 L 55.372258 16.173566 L 60.639323 36.267305 L 60.838869 36.267305 L 66.050247 16.173566 L 81.289933 16.173566 L 81.289933 51.001167 Z M 111.393417 51.001167 L 109.936273 46.091426 L 97.722249 46.091426 L 96.265105 51.001167 L 84.821419 51.001167 L 97.527345 16.173566 L 110.539549 16.173566 L 123.245475 51.001167 Z M 100.061105 38.295241 L 107.597417 38.295241 L 103.954557 25.886313 L 103.755012 25.886313 Z M 160.490821 26.851555 C 160.490821 28.976943 159.915388 30.902787 158.764523 32.624444 C 157.618298 34.346102 155.947687 35.608341 153.75733 36.415803 L 161.507109 51.001167 L 148.949683 51.001167 L 142.768422 38.295241 L 138.619737 38.295241 L 138.619737 51.001167 L 127.435924 51.001167 L 127.435924 16.173566 L 148.750137 16.173566 C 151.246773 16.173566 153.381443 16.656187 155.154147 17.621428 C 156.926851 18.577389 158.254058 19.872113 159.145051 21.51488 C 160.045325 23.153007 160.490821 24.930352 160.490821 26.851555 Z M 149.098181 27.310973 C 149.098181 26.392137 148.791903 25.635721 148.183986 25.037086 C 147.58071 24.424528 146.842856 24.118249 145.961145 24.118249 L 138.619737 24.118249 L 138.619737 30.545462 L 145.961145 30.545462 C 146.842856 30.545462 147.58071 30.239183 148.183986 29.621985 C 148.791903 28.995506 149.098181 28.225168 149.098181 27.310973 Z M 186.853992 25.083491 L 186.853992 51.001167 L 175.670179 51.001167 L 175.670179 25.083491 L 164.226493 25.083491 L 164.226493 16.173566 L 198.246632 16.173566 L 198.246632 25.083491 Z M 186.853992 25.083491 " stroke="#000000" stroke-width="6.707627" stroke-opacity="1" stroke-miterlimit="4"/><g fill="#e9eaec" fill-opacity="1"><g transform="translate(79.354812, 57.694331)"><g><path d="M 15.46875 -29.828125 C 19.21875 -29.828125 22.296875 -29.066406 24.703125 -27.546875 C 27.117188 -26.023438 28.359375 -23.773438 28.421875 -20.796875 L 28.421875 -20.28125 L 19.59375 -20.28125 L 19.59375 -20.453125 C 19.59375 -21.304688 19.28125 -22.015625 18.65625 -22.578125 C 18.03125 -23.148438 17.082031 -23.4375 15.8125 -23.4375 C 14.5625 -23.4375 13.601562 -23.25 12.9375 -22.875 C 12.269531 -22.507812 11.9375 -22.054688 11.9375 -21.515625 C 11.9375 -20.753906 12.390625 -20.1875 13.296875 -19.8125 C 14.203125 -19.445312 15.664062 -19.0625 17.6875 -18.65625 C 20.039062 -18.175781 21.976562 -17.671875 23.5 -17.140625 C 25.019531 -16.617188 26.347656 -15.757812 27.484375 -14.5625 C 28.617188 -13.375 29.203125 -11.757812 29.234375 -9.71875 C 29.234375 -6.25 28.0625 -3.675781 25.71875 -2 C 23.375 -0.320312 20.238281 0.515625 16.3125 0.515625 C 11.738281 0.515625 8.179688 -0.25 5.640625 -1.78125 C 3.097656 -3.320312 1.828125 -6.035156 1.828125 -9.921875 L 10.734375 -9.921875 C 10.734375 -8.453125 11.113281 -7.46875 11.875 -6.96875 C 12.644531 -6.46875 13.84375 -6.21875 15.46875 -6.21875 C 16.65625 -6.21875 17.640625 -6.34375 18.421875 -6.59375 C 19.203125 -6.851562 19.59375 -7.382812 19.59375 -8.1875 C 19.59375 -8.894531 19.160156 -9.425781 18.296875 -9.78125 C 17.429688 -10.132812 16.019531 -10.507812 14.0625 -10.90625 C 11.675781 -11.414062 9.703125 -11.945312 8.140625 -12.5 C 6.578125 -13.0625 5.210938 -13.976562 4.046875 -15.25 C 2.878906 -16.53125 2.296875 -18.265625 2.296875 -20.453125 C 2.296875 -23.660156 3.535156 -26.023438 6.015625 -27.546875 C 8.503906 -29.066406 11.65625 -29.828125 15.46875 -29.828125 Z M 15.46875 -29.828125 "/></g></g></g><g fill="#e9eaec" fill-opacity="1"><g transform="translate(110.112599, 57.694331)"><g><path d="M 28.328125 0 L 28.328125 -10.5625 C 28.328125 -11.875 28.378906 -13.21875 28.484375 -14.59375 C 28.585938 -15.96875 28.691406 -17.125 28.796875 -18.0625 C 28.910156 -19 28.984375 -19.597656 29.015625 -19.859375 L 28.84375 -19.859375 L 23.4375 0 L 16.0625 0 L 10.609375 -19.8125 L 10.4375 -19.8125 C 10.46875 -19.5625 10.546875 -18.972656 10.671875 -18.046875 C 10.796875 -17.117188 10.914062 -15.96875 11.03125 -14.59375 C 11.144531 -13.21875 11.203125 -11.875 11.203125 -10.5625 L 11.203125 0 L 2.5625 0 L 2.5625 -29.3125 L 15.84375 -29.3125 L 20.28125 -12.40625 L 20.453125 -12.40625 L 24.84375 -29.3125 L 37.671875 -29.3125 L 37.671875 0 Z M 28.328125 0 "/></g></g></g><g fill="#e9eaec" fill-opacity="1"><g transform="translate(150.327768, 57.694331)"><g><path d="M 22.796875 0 L 21.5625 -4.140625 L 11.296875 -4.140625 L 10.0625 0 L 0.421875 0 L 11.125 -29.3125 L 22.078125 -29.3125 L 32.765625 0 Z M 13.25 -10.6875 L 19.59375 -10.6875 L 16.53125 -21.140625 L 16.359375 -21.140625 Z M 13.25 -10.6875 "/></g></g></g><g fill="#e9eaec" fill-opacity="1"><g transform="translate(183.471199, 57.694331)"><g><path d="M 30.984375 -20.328125 C 30.984375 -18.535156 30.5 -16.914062 29.53125 -15.46875 C 28.5625 -14.019531 27.15625 -12.953125 25.3125 -12.265625 L 31.828125 0 L 21.265625 0 L 16.0625 -10.6875 L 12.5625 -10.6875 L 12.5625 0 L 3.15625 0 L 3.15625 -29.3125 L 21.09375 -29.3125 C 23.195312 -29.3125 24.992188 -28.90625 26.484375 -28.09375 C 27.972656 -27.289062 29.09375 -26.195312 29.84375 -24.8125 C 30.601562 -23.4375 30.984375 -21.941406 30.984375 -20.328125 Z M 21.390625 -19.9375 C 21.390625 -20.707031 21.132812 -21.347656 20.625 -21.859375 C 20.113281 -22.367188 19.488281 -22.625 18.75 -22.625 L 12.5625 -22.625 L 12.5625 -17.21875 L 18.75 -17.21875 C 19.488281 -17.21875 20.113281 -17.476562 20.625 -18 C 21.132812 -18.53125 21.390625 -19.175781 21.390625 -19.9375 Z M 21.390625 -19.9375 "/></g></g></g><g fill="#e9eaec" fill-opacity="1"><g transform="translate(216.614631, 57.694331)"><g><path d="M 20.03125 -21.8125 L 20.03125 0 L 10.609375 0 L 10.609375 -21.8125 L 0.984375 -21.8125 L 0.984375 -29.3125 L 29.609375 -29.3125 L 29.609375 -21.8125 Z M 20.03125 -21.8125 "/></g></g></g><g clip-path="url(#ca752d2dee)"><path stroke-linecap="butt" transform="matrix(0.841758, 0, 0, 0.841758, 97.766428, 44.440324)" fill="none" stroke-linejoin="miter" d="M 20.37122 15.570453 C 25.526912 15.570453 29.605987 16.855895 32.603806 19.436061 C 35.610906 22.016227 37.114456 25.700853 37.114456 30.499219 L 26.436467 30.499219 C 26.436467 28.471283 25.90744 26.870281 24.844746 25.691572 C 23.782051 24.512863 22.26922 23.923508 20.306252 23.923508 C 18.050927 23.923508 16.389597 24.633518 15.326903 26.048897 C 14.264209 27.464276 13.735182 29.436525 13.735182 31.970285 L 13.735182 35.204774 C 13.735182 37.701409 14.264209 39.669018 15.326903 41.102959 C 16.389597 42.53226 18.018443 43.251551 20.2088 43.251551 C 22.366672 43.251551 24.004799 42.69468 25.1139 41.58094 C 26.236922 40.471839 26.798432 38.903321 26.798432 36.875385 L 37.114456 36.875385 C 37.114456 41.636627 35.657312 45.284128 32.738383 47.813247 C 29.824095 50.342367 25.698613 51.604606 20.37122 51.604606 C 14.43127 51.604606 9.929901 50.091775 6.876395 47.056832 C 3.818249 44.017247 2.291496 39.52516 2.291496 33.585209 C 2.291496 27.645259 3.818249 23.162452 6.876395 20.127509 C 9.929901 17.087925 14.43127 15.570453 20.37122 15.570453 Z M 65.454517 51.00133 L 63.997373 46.09159 L 51.78799 46.09159 L 50.326206 51.00133 L 38.882519 51.00133 L 51.588445 16.173729 L 64.600649 16.173729 L 77.306575 51.00133 Z M 54.122205 38.295404 L 61.658518 38.295404 L 58.015657 25.886476 L 57.816112 25.886476 Z M 105.386763 51.00133 L 90.764276 34.095674 L 90.764276 51.00133 L 80.485377 51.00133 L 80.485377 16.173729 L 90.258452 16.173729 L 104.880939 33.325336 L 104.880939 16.173729 L 115.159838 16.173729 L 115.159838 51.00133 Z M 131.095612 51.00133 L 118.747012 16.173729 L 130.68724 16.173729 L 137.680604 39.455551 L 137.880149 39.455551 L 144.910638 16.173729 L 156.354324 16.173729 L 144.05677 51.00133 Z M 183.320771 51.00133 L 181.863627 46.09159 L 169.654244 46.09159 L 168.1971 51.00133 L 156.753414 51.00133 L 169.454699 16.173729 L 182.471544 16.173729 L 195.172829 51.00133 Z M 171.988459 38.295404 L 179.529412 38.295404 L 175.881911 25.886476 L 175.687007 25.886476 Z M 212.9834 15.570453 C 217.443003 15.570453 221.104426 16.470727 223.972308 18.275915 C 226.83555 20.081103 228.306616 22.754081 228.371584 26.294848 L 228.371584 26.902765 L 217.8885 26.902765 L 217.8885 26.70322 C 217.8885 25.691572 217.521893 24.846985 216.779399 24.169459 C 216.036906 23.496574 214.909243 23.157812 213.391771 23.157812 C 211.902143 23.157812 210.760559 23.38056 209.967019 23.826056 C 209.178119 24.262271 208.783669 24.800579 208.783669 25.44098 C 208.783669 26.350535 209.321977 27.02342 210.403234 27.468916 C 211.47985 27.905131 213.22007 28.359909 215.614612 28.828608 C 218.417526 29.404041 220.719257 30.007317 222.524445 30.633796 C 224.329633 31.250994 225.907433 32.267283 227.257844 33.687302 C 228.608254 35.102681 229.299702 37.028524 229.332186 39.455551 C 229.332186 43.576392 227.94001 46.634538 225.155658 48.62535 C 222.371306 50.611521 218.654196 51.604606 213.999688 51.604606 C 208.560921 51.604606 204.328706 50.695051 201.307684 48.875941 C 198.291303 47.052191 196.783113 43.831624 196.783113 39.2096 L 207.359009 39.2096 C 207.359009 40.963742 207.813786 42.13781 208.718701 42.731805 C 209.632896 43.316519 211.057556 43.608876 212.9834 43.608876 C 214.403419 43.608876 215.572847 43.455736 216.491683 43.154098 C 217.424441 42.84782 217.8885 42.225981 217.8885 41.288583 C 217.8885 40.439355 217.373394 39.803595 216.347825 39.381302 C 215.317615 38.963649 213.637722 38.513512 211.317429 38.035532 C 208.482031 37.436896 206.133894 36.805776 204.273019 36.146813 C 202.416784 35.48785 200.79722 34.397312 199.414325 32.884481 C 198.03143 31.357728 197.339983 29.297307 197.339983 26.70322 C 197.339983 22.888658 198.811049 20.081103 201.762462 18.275915 C 204.718515 16.470727 208.458828 15.570453 212.9834 15.570453 Z M 212.9834 15.570453 " stroke="#000000" stroke-width="6.707627" stroke-opacity="1" stroke-miterlimit="4"/></g><g fill="#e9eaec" fill-opacity="1"><g transform="translate(97.779581, 87.369974)"><g><path d="M 17.125 -29.828125 C 21.46875 -29.828125 24.90625 -28.738281 27.4375 -26.5625 C 29.96875 -24.394531 31.234375 -21.289062 31.234375 -17.25 L 22.234375 -17.25 C 22.234375 -18.957031 21.785156 -20.304688 20.890625 -21.296875 C 20.003906 -22.296875 18.738281 -22.796875 17.09375 -22.796875 C 15.1875 -22.796875 13.785156 -22.195312 12.890625 -21 C 11.992188 -19.8125 11.546875 -18.148438 11.546875 -16.015625 L 11.546875 -13.296875 C 11.546875 -11.191406 11.992188 -9.535156 12.890625 -8.328125 C 13.785156 -7.117188 15.15625 -6.515625 17 -6.515625 C 18.820312 -6.515625 20.203125 -6.984375 21.140625 -7.921875 C 22.078125 -8.859375 22.546875 -10.179688 22.546875 -11.890625 L 31.234375 -11.890625 C 31.234375 -7.878906 30.003906 -4.804688 27.546875 -2.671875 C 25.085938 -0.546875 21.613281 0.515625 17.125 0.515625 C 12.125 0.515625 8.335938 -0.757812 5.765625 -3.3125 C 3.203125 -5.875 1.921875 -9.65625 1.921875 -14.65625 C 1.921875 -19.65625 3.203125 -23.429688 5.765625 -25.984375 C 8.335938 -28.546875 12.125 -29.828125 17.125 -29.828125 Z M 17.125 -29.828125 "/></g></g></g><g fill="#e9eaec" fill-opacity="1"><g transform="translate(130.070757, 87.369974)"><g><path d="M 22.796875 0 L 21.5625 -4.140625 L 11.296875 -4.140625 L 10.0625 0 L 0.421875 0 L 11.125 -29.3125 L 22.078125 -29.3125 L 32.765625 0 Z M 13.25 -10.6875 L 19.59375 -10.6875 L 16.53125 -21.140625 L 16.359375 -21.140625 Z M 13.25 -10.6875 "/></g></g></g><g fill="#e9eaec" fill-opacity="1"><g transform="translate(162.361934, 87.369974)"><g><path d="M 24.109375 0 L 11.796875 -14.234375 L 11.796875 0 L 3.15625 0 L 3.15625 -29.3125 L 11.375 -29.3125 L 23.6875 -14.875 L 23.6875 -29.3125 L 32.34375 -29.3125 L 32.34375 0 Z M 24.109375 0 "/></g></g></g><g fill="#e9eaec" fill-opacity="1"><g transform="translate(196.996161, 87.369974)"><g><path d="M 11.125 0 L 0.71875 -29.3125 L 10.78125 -29.3125 L 16.65625 -9.71875 L 16.828125 -9.71875 L 22.75 -29.3125 L 32.390625 -29.3125 L 22.03125 0 Z M 11.125 0 "/></g></g></g><g fill="#e9eaec" fill-opacity="1"><g transform="translate(229.287341, 87.369974)"><g><path d="M 22.796875 0 L 21.5625 -4.140625 L 11.296875 -4.140625 L 10.0625 0 L 0.421875 0 L 11.125 -29.3125 L 22.078125 -29.3125 L 32.765625 0 Z M 13.25 -10.6875 L 19.59375 -10.6875 L 16.53125 -21.140625 L 16.359375 -21.140625 Z M 13.25 -10.6875 "/></g></g></g><g fill="#e9eaec" fill-opacity="1"><g transform="translate(261.578521, 87.369974)"><g><path d="M 15.46875 -29.828125 C 19.21875 -29.828125 22.296875 -29.066406 24.703125 -27.546875 C 27.117188 -26.023438 28.359375 -23.773438 28.421875 -20.796875 L 28.421875 -20.28125 L 19.59375 -20.28125 L 19.59375 -20.453125 C 19.59375 -21.304688 19.28125 -22.015625 18.65625 -22.578125 C 18.03125 -23.148438 17.082031 -23.4375 15.8125 -23.4375 C 14.5625 -23.4375 13.601562 -23.25 12.9375 -22.875 C 12.269531 -22.507812 11.9375 -22.054688 11.9375 -21.515625 C 11.9375 -20.753906 12.390625 -20.1875 13.296875 -19.8125 C 14.203125 -19.445312 15.664062 -19.0625 17.6875 -18.65625 C 20.039062 -18.175781 21.976562 -17.671875 23.5 -17.140625 C 25.019531 -16.617188 26.347656 -15.757812 27.484375 -14.5625 C 28.617188 -13.375 29.203125 -11.757812 29.234375 -9.71875 C 29.234375 -6.25 28.0625 -3.675781 25.71875 -2 C 23.375 -0.320312 20.238281 0.515625 16.3125 0.515625 C 11.738281 0.515625 8.179688 -0.25 5.640625 -1.78125 C 3.097656 -3.320312 1.828125 -6.035156 1.828125 -9.921875 L 10.734375 -9.921875 C 10.734375 -8.453125 11.113281 -7.46875 11.875 -6.96875 C 12.644531 -6.46875 13.84375 -6.21875 15.46875 -6.21875 C 16.65625 -6.21875 17.640625 -6.34375 18.421875 -6.59375 C 19.203125 -6.851562 19.59375 -7.382812 19.59375 -8.1875 C 19.59375 -8.894531 19.160156 -9.425781 18.296875 -9.78125 C 17.429688 -10.132812 16.019531 -10.507812 14.0625 -10.90625 C 11.675781 -11.414062 9.703125 -11.945312 8.140625 -12.5 C 6.578125 -13.0625 5.210938 -13.976562 4.046875 -15.25 C 2.878906 -16.53125 2.296875 -18.265625 2.296875 -20.453125 C 2.296875 -23.660156 3.535156 -26.023438 6.015625 -27.546875 C 8.503906 -29.066406 11.65625 -29.828125 15.46875 -29.828125 Z M 15.46875 -29.828125 "/></g></g></g><g fill="#545454" fill-opacity="1"><g transform="translate(154.713662, 109.139131)"><g><path d="M 6.140625 -2.34375 L 2.09375 -2.34375 L 1.40625 0 L 0.203125 0 L 3.046875 -9.421875 L 5.171875 -9.421875 L 8.03125 0 L 6.828125 0 Z M 4.03125 -8.9375 L 2.40625 -3.390625 L 5.828125 -3.390625 L 4.203125 -8.9375 Z M 4.03125 -8.9375 "/></g></g></g><g fill="#545454" fill-opacity="1"><g transform="translate(162.940081, 109.139131)"><g><path d="M 1.125 -9.421875 L 7.109375 -9.421875 L 7.109375 -8.375 L 4.6875 -8.375 L 4.6875 -1.046875 L 7.109375 -1.046875 L 7.109375 0 L 1.125 0 L 1.125 -1.046875 L 3.546875 -1.046875 L 3.546875 -8.375 L 1.125 -8.375 Z M 1.125 -9.421875 "/></g></g></g><g fill="#545454" fill-opacity="1"><g transform="translate(171.166499, 109.139131)"><g/></g></g><g fill="#545454" fill-opacity="1"><g transform="translate(179.392917, 109.139131)"><g><path d="M 1.265625 -9.421875 L 6.96875 -9.421875 L 6.96875 -8.375 L 2.390625 -8.375 L 2.390625 -5.25 L 6.890625 -5.25 L 6.890625 -4.203125 L 2.390625 -4.203125 L 2.390625 -1.046875 L 7.046875 -1.046875 L 7.046875 0 L 1.265625 0 Z M 1.265625 -9.421875 "/></g></g></g><g fill="#545454" fill-opacity="1"><g transform="translate(187.619335, 109.139131)"><g><path d="M 6.34375 -1.015625 L 6.171875 -1.015625 C 6.066406 -0.816406 5.929688 -0.640625 5.765625 -0.484375 C 5.597656 -0.328125 5.414062 -0.195312 5.21875 -0.09375 C 5.03125 0 4.828125 0.0664062 4.609375 0.109375 C 4.398438 0.160156 4.195312 0.1875 4 0.1875 C 3.550781 0.1875 3.132812 0.113281 2.75 -0.03125 C 2.363281 -0.1875 2.023438 -0.40625 1.734375 -0.6875 C 1.441406 -0.976562 1.210938 -1.335938 1.046875 -1.765625 C 0.878906 -2.191406 0.796875 -2.679688 0.796875 -3.234375 L 0.796875 -3.4375 C 0.796875 -3.976562 0.878906 -4.460938 1.046875 -4.890625 C 1.222656 -5.316406 1.453125 -5.675781 1.734375 -5.96875 C 2.023438 -6.257812 2.363281 -6.476562 2.75 -6.625 C 3.132812 -6.78125 3.539062 -6.859375 3.96875 -6.859375 C 4.425781 -6.859375 4.851562 -6.753906 5.25 -6.546875 C 5.65625 -6.347656 5.960938 -6.039062 6.171875 -5.625 L 6.34375 -5.625 L 6.34375 -9.421875 L 7.390625 -9.421875 L 7.390625 0 L 6.34375 0 Z M 4.109375 -0.8125 C 4.421875 -0.8125 4.707031 -0.867188 4.96875 -0.984375 C 5.238281 -1.097656 5.472656 -1.257812 5.671875 -1.46875 C 5.878906 -1.6875 6.039062 -1.945312 6.15625 -2.25 C 6.28125 -2.550781 6.34375 -2.882812 6.34375 -3.25 L 6.34375 -3.421875 C 6.34375 -3.773438 6.28125 -4.101562 6.15625 -4.40625 C 6.039062 -4.707031 5.878906 -4.960938 5.671875 -5.171875 C 5.472656 -5.390625 5.238281 -5.554688 4.96875 -5.671875 C 4.695312 -5.796875 4.410156 -5.859375 4.109375 -5.859375 C 3.785156 -5.859375 3.488281 -5.800781 3.21875 -5.6875 C 2.945312 -5.570312 2.707031 -5.40625 2.5 -5.1875 C 2.300781 -4.976562 2.144531 -4.722656 2.03125 -4.421875 C 1.925781 -4.128906 1.875 -3.800781 1.875 -3.4375 L 1.875 -3.234375 C 1.875 -2.847656 1.925781 -2.507812 2.03125 -2.21875 C 2.144531 -1.925781 2.300781 -1.671875 2.5 -1.453125 C 2.707031 -1.242188 2.945312 -1.082031 3.21875 -0.96875 C 3.488281 -0.863281 3.785156 -0.8125 4.109375 -0.8125 Z M 4.109375 -0.8125 "/></g></g></g><g fill="#545454" fill-opacity="1"><g transform="translate(195.845753, 109.139131)"><g><path d="M 3.234375 -8.65625 C 3.234375 -8.914062 3.328125 -9.140625 3.515625 -9.328125 C 3.703125 -9.515625 3.925781 -9.609375 4.1875 -9.609375 C 4.445312 -9.609375 4.664062 -9.515625 4.84375 -9.328125 C 5.03125 -9.140625 5.125 -8.914062 5.125 -8.65625 C 5.125 -8.40625 5.03125 -8.1875 4.84375 -8 C 4.664062 -7.8125 4.445312 -7.71875 4.1875 -7.71875 C 3.925781 -7.71875 3.703125 -7.8125 3.515625 -8 C 3.328125 -8.1875 3.234375 -8.40625 3.234375 -8.65625 Z M 1.328125 -0.96875 L 3.671875 -0.96875 L 3.671875 -5.703125 L 1.578125 -5.703125 L 1.578125 -6.671875 L 4.71875 -6.671875 L 4.71875 -0.96875 L 6.90625 -0.96875 L 6.90625 0 L 1.328125 0 Z M 1.328125 -0.96875 "/></g></g></g><g fill="#545454" fill-opacity="1"><g transform="translate(204.072171, 109.139131)"><g><path d="M 0.9375 -6.671875 L 3.046875 -6.671875 L 3.046875 -9.421875 L 4.09375 -9.421875 L 4.09375 -6.671875 L 6.671875 -6.671875 L 6.671875 -5.703125 L 4.09375 -5.703125 L 4.09375 -1.375 C 4.09375 -1.101562 4.210938 -0.96875 4.453125 -0.96875 L 6.34375 -0.96875 L 6.34375 0 L 4.078125 0 C 3.773438 0 3.523438 -0.0976562 3.328125 -0.296875 C 3.140625 -0.492188 3.046875 -0.742188 3.046875 -1.046875 L 3.046875 -5.703125 L 0.9375 -5.703125 Z M 0.9375 -6.671875 "/></g></g></g><g fill="#545454" fill-opacity="1"><g transform="translate(212.298589, 109.139131)"><g><path d="M 7.46875 -3.25 C 7.46875 -2.695312 7.375 -2.207031 7.1875 -1.78125 C 7.007812 -1.351562 6.765625 -0.992188 6.453125 -0.703125 C 6.148438 -0.410156 5.796875 -0.1875 5.390625 -0.03125 C 4.984375 0.113281 4.554688 0.1875 4.109375 0.1875 C 3.660156 0.1875 3.234375 0.113281 2.828125 -0.03125 C 2.429688 -0.1875 2.078125 -0.410156 1.765625 -0.703125 C 1.460938 -0.992188 1.21875 -1.351562 1.03125 -1.78125 C 0.851562 -2.207031 0.765625 -2.695312 0.765625 -3.25 L 0.765625 -3.421875 C 0.765625 -3.960938 0.851562 -4.445312 1.03125 -4.875 C 1.21875 -5.300781 1.46875 -5.660156 1.78125 -5.953125 C 2.09375 -6.253906 2.445312 -6.476562 2.84375 -6.625 C 3.25 -6.78125 3.671875 -6.859375 4.109375 -6.859375 C 4.554688 -6.859375 4.976562 -6.78125 5.375 -6.625 C 5.78125 -6.476562 6.140625 -6.253906 6.453125 -5.953125 C 6.765625 -5.660156 7.007812 -5.300781 7.1875 -4.875 C 7.375 -4.445312 7.46875 -3.960938 7.46875 -3.421875 Z M 4.109375 -0.8125 C 4.429688 -0.8125 4.726562 -0.863281 5 -0.96875 C 5.28125 -1.082031 5.523438 -1.25 5.734375 -1.46875 C 5.941406 -1.6875 6.101562 -1.941406 6.21875 -2.234375 C 6.332031 -2.535156 6.390625 -2.875 6.390625 -3.25 L 6.390625 -3.421875 C 6.390625 -3.773438 6.332031 -4.101562 6.21875 -4.40625 C 6.101562 -4.707031 5.941406 -4.960938 5.734375 -5.171875 C 5.523438 -5.390625 5.28125 -5.554688 5 -5.671875 C 4.726562 -5.796875 4.429688 -5.859375 4.109375 -5.859375 C 3.796875 -5.859375 3.5 -5.796875 3.21875 -5.671875 C 2.945312 -5.554688 2.707031 -5.390625 2.5 -5.171875 C 2.289062 -4.960938 2.128906 -4.707031 2.015625 -4.40625 C 1.898438 -4.101562 1.84375 -3.773438 1.84375 -3.421875 L 1.84375 -3.25 C 1.84375 -2.875 1.898438 -2.535156 2.015625 -2.234375 C 2.128906 -1.941406 2.289062 -1.6875 2.5 -1.46875 C 2.707031 -1.25 2.945312 -1.082031 3.21875 -0.96875 C 3.488281 -0.863281 3.785156 -0.8125 4.109375 -0.8125 Z M 4.109375 -0.8125 "/></g></g></g><g fill="#545454" fill-opacity="1"><g transform="translate(220.525007, 109.139131)"><g><path d="M 0.796875 -6.671875 L 3.21875 -6.671875 L 3.21875 -5.78125 L 3.375 -5.78125 C 3.539062 -6.15625 3.78125 -6.425781 4.09375 -6.59375 C 4.414062 -6.769531 4.773438 -6.859375 5.171875 -6.859375 C 5.847656 -6.859375 6.390625 -6.640625 6.796875 -6.203125 C 7.210938 -5.765625 7.4375 -5.125 7.46875 -4.28125 L 6.359375 -4.109375 C 6.359375 -4.734375 6.207031 -5.179688 5.90625 -5.453125 C 5.613281 -5.722656 5.253906 -5.859375 4.828125 -5.859375 C 4.546875 -5.859375 4.304688 -5.804688 4.109375 -5.703125 C 3.910156 -5.597656 3.742188 -5.453125 3.609375 -5.265625 C 3.472656 -5.078125 3.375 -4.851562 3.3125 -4.59375 C 3.25 -4.34375 3.21875 -4.078125 3.21875 -3.796875 L 3.21875 -0.96875 L 4.90625 -0.96875 L 4.90625 0 L 0.625 0 L 0.625 -0.96875 L 2.171875 -0.96875 L 2.171875 -5.703125 L 0.796875 -5.703125 Z M 0.796875 -6.671875 "/></g></g></g></svg>