<svg xmlns="http://www.w3.org/2000/svg" xmlns:xlink="http://www.w3.org/1999/xlink" width="300" zoomAndPan="magnify" viewBox="0 0 224.87999 104.999996" height="140" preserveAspectRatio="xMidYMid meet" version="1.0"><defs><g/><clipPath id="1ad41b1a5f"><path d="M 0 0.0273438 L 224.761719 0.0273438 L 224.761719 104.972656 L 0 104.972656 Z M 0 0.0273438 " clip-rule="nonzero"/></clipPath><clipPath id="39def0517b"><path d="M 10.496094 51.324219 L 29.460938 51.324219 L 29.460938 60.808594 L 10.496094 60.808594 Z M 10.496094 51.324219 " clip-rule="nonzero"/></clipPath><clipPath id="bb23db71d4"><path d="M 29.457031 56.050781 C 29.457031 58.65625 27.34375 60.773438 24.734375 60.773438 L 15.296875 60.773438 C 12.691406 60.773438 10.53125 58.6875 10.515625 56.085938 C 10.496094 53.460938 12.617188 51.324219 15.234375 51.324219 L 24.734375 51.324219 C 27.34375 51.324219 29.457031 53.441406 29.457031 56.050781 " clip-rule="nonzero"/></clipPath><clipPath id="4f50b0d7ad"><path d="M 18.800781 31.222656 L 29.457031 31.222656 L 29.457031 48.59375 L 18.800781 48.59375 Z M 18.800781 31.222656 " clip-rule="nonzero"/></clipPath><clipPath id="aa677b7778"><path d="M 29.457031 38.828125 L 29.457031 48.558594 L 20.210938 39.3125 C 18.367188 37.46875 18.367188 34.480469 20.210938 32.632812 C 22.054688 30.789062 25.046875 30.789062 26.890625 32.632812 C 28.535156 34.273438 29.457031 36.503906 29.457031 38.828125 " clip-rule="nonzero"/></clipPath><clipPath id="b900edc8fc"><path d="M 18.800781 63.539062 L 29.457031 63.539062 L 29.457031 80.867188 L 18.800781 80.867188 Z M 18.800781 63.539062 " clip-rule="nonzero"/></clipPath><clipPath id="5f53272c89"><path d="M 29.457031 63.539062 L 29.457031 73.269531 C 29.457031 75.59375 28.535156 77.820312 26.890625 79.464844 C 25.046875 81.308594 22.058594 81.308594 20.210938 79.464844 C 18.367188 77.617188 18.367188 74.628906 20.210938 72.785156 Z M 29.457031 63.539062 " clip-rule="nonzero"/></clipPath><clipPath id="cde75941d5"><path d="M 38.902344 22.914062 L 48.429688 22.914062 L 48.429688 40.777344 L 38.902344 40.777344 Z M 38.902344 22.914062 " clip-rule="nonzero"/></clipPath><clipPath id="0dc1106b8d"><path d="M 48.351562 27.71875 C 48.351562 30.003906 47.445312 32.195312 45.828125 33.808594 L 38.902344 40.734375 L 38.902344 27.65625 C 38.902344 25.035156 41.039062 22.914062 43.664062 22.933594 C 46.269531 22.953125 48.351562 25.113281 48.351562 27.71875 " clip-rule="nonzero"/></clipPath><clipPath id="968a4d8439"><path d="M 38.902344 71.339844 L 48.429688 71.339844 L 48.429688 89.203125 L 38.902344 89.203125 Z M 38.902344 71.339844 " clip-rule="nonzero"/></clipPath><clipPath id="190ae1b8c0"><path d="M 45.785156 78.246094 C 47.429688 79.886719 48.351562 82.117188 48.351562 84.4375 C 48.351562 86.867188 46.519531 88.867188 44.160156 89.132812 C 44.160156 89.132812 44.160156 89.132812 44.15625 89.132812 C 43.980469 89.136719 43.804688 89.136719 43.628906 89.136719 C 43.453125 89.136719 43.273438 89.136719 43.097656 89.132812 C 43.097656 89.132812 43.09375 89.132812 43.09375 89.132812 C 40.738281 88.867188 38.902344 86.867188 38.902344 84.441406 L 38.902344 71.363281 Z M 45.785156 78.246094 " clip-rule="nonzero"/></clipPath><clipPath id="f237e4490e"><path d="M 38.902344 31.25 L 76.746094 31.25 L 76.746094 80.867188 L 38.902344 80.867188 Z M 38.902344 31.25 " clip-rule="nonzero"/></clipPath><clipPath id="d9a11d6904"><path d="M 76.734375 55.800781 C 76.875 58.515625 74.65625 60.773438 71.9375 60.773438 L 55.070312 60.773438 C 55.058594 60.773438 55.050781 60.789062 55.058594 60.800781 L 67.042969 72.785156 C 68.886719 74.628906 68.886719 77.621094 67.042969 79.464844 C 65.207031 81.296875 62.238281 81.308594 60.390625 79.492188 C 60.382812 79.484375 60.371094 79.476562 60.363281 79.464844 C 60.351562 79.453125 60.34375 79.445312 60.332031 79.433594 L 48.351562 67.453125 L 48.351562 67.449219 L 43.628906 62.730469 L 40.285156 59.386719 C 39.402344 58.5 38.902344 57.300781 38.902344 56.046875 C 38.902344 54.796875 39.402344 53.597656 40.285156 52.710938 L 48.351562 44.644531 L 60.335938 32.664062 L 60.363281 32.632812 L 60.394531 32.605469 C 62.238281 30.789062 65.207031 30.800781 67.042969 32.636719 C 68.890625 34.480469 68.890625 37.46875 67.046875 39.3125 L 55.0625 51.300781 C 55.050781 51.308594 55.058594 51.328125 55.074219 51.328125 L 72.019531 51.328125 C 74.542969 51.328125 76.605469 53.308594 76.734375 55.800781 " clip-rule="nonzero"/></clipPath><clipPath id="ea6e38256e"><path d="M 198.085938 49.65625 L 204.902344 49.65625 L 204.902344 56.472656 L 198.085938 56.472656 Z M 198.085938 49.65625 " clip-rule="nonzero"/></clipPath><clipPath id="5bdeaeef22"><path d="M 201.496094 49.65625 C 199.613281 49.65625 198.085938 51.183594 198.085938 53.0625 C 198.085938 54.945312 199.613281 56.472656 201.496094 56.472656 C 203.375 56.472656 204.902344 54.945312 204.902344 53.0625 C 204.902344 51.183594 203.375 49.65625 201.496094 49.65625 Z M 201.496094 49.65625 " clip-rule="nonzero"/></clipPath></defs><g clip-path="url(#1ad41b1a5f)"><path fill="#ffffff" d="M 0 0.0273438 L 224.878906 0.0273438 L 224.878906 104.972656 L 0 104.972656 Z M 0 0.0273438 " fill-opacity="1" fill-rule="nonzero"/><path fill="#ffffff" d="M 0 0.0273438 L 224.878906 0.0273438 L 224.878906 104.972656 L 0 104.972656 Z M 0 0.0273438 " fill-opacity="1" fill-rule="nonzero"/></g><g clip-path="url(#39def0517b)"><g clip-path="url(#bb23db71d4)"><path fill="#481c4b" d="M 10.496094 51.324219 L 29.460938 51.324219 L 29.460938 60.773438 L 10.496094 60.773438 Z M 10.496094 51.324219 " fill-opacity="1" fill-rule="nonzero"/></g></g><g clip-path="url(#4f50b0d7ad)"><g clip-path="url(#aa677b7778)"><path fill="#2dcf42" d="M 18.367188 30.789062 L 29.457031 30.789062 L 29.457031 48.550781 L 18.367188 48.550781 Z M 18.367188 30.789062 " fill-opacity="1" fill-rule="nonzero"/></g></g><g clip-path="url(#b900edc8fc)"><g clip-path="url(#5f53272c89)"><path fill="#efd109" d="M 18.367188 63.539062 L 29.457031 63.539062 L 29.457031 81.300781 L 18.367188 81.300781 Z M 18.367188 63.539062 " fill-opacity="1" fill-rule="nonzero"/></g></g><g clip-path="url(#cde75941d5)"><g clip-path="url(#0dc1106b8d)"><path fill="#e01d5b" d="M 38.242188 22.253906 L 77.539062 22.253906 L 77.539062 89.863281 L 38.242188 89.863281 Z M 38.242188 22.253906 " fill-opacity="1" fill-rule="nonzero"/></g></g><g clip-path="url(#968a4d8439)"><g clip-path="url(#190ae1b8c0)"><path fill="#2bb1eb" d="M 38.242188 22.253906 L 77.539062 22.253906 L 77.539062 89.863281 L 38.242188 89.863281 Z M 38.242188 22.253906 " fill-opacity="1" fill-rule="nonzero"/></g></g><g clip-path="url(#f237e4490e)"><g clip-path="url(#d9a11d6904)"><path fill="#481c4b" d="M 38.242188 22.253906 L 77.539062 22.253906 L 77.539062 89.863281 L 38.242188 89.863281 Z M 38.242188 22.253906 " fill-opacity="1" fill-rule="nonzero"/></g></g><g fill="#481c4b" fill-opacity="1"><g transform="translate(76.595995, 54.848882)"><g><path d="M 12.28125 -27.015625 C 7.136719 -27.015625 2.570312 -24.136719 2.570312 -19.1875 C 2.570312 -14.121094 6.023438 -12.242188 11.703125 -10.820312 C 15.3125 -9.976562 16.539062 -8.710938 16.539062 -6.871094 C 16.539062 -5.066406 14.8125 -3.914062 12.625 -3.914062 C 10.207031 -3.914062 8.097656 -5.21875 7.558594 -7.945312 L 1.496094 -7.945312 C 1.957031 -2.226562 6.253906 0.539062 12.742188 0.539062 C 18.035156 0.539062 22.832031 -2.226562 22.832031 -7.367188 C 22.832031 -11.550781 20.300781 -14.3125 14.46875 -15.695312 C 10.207031 -16.695312 8.863281 -17.769531 8.863281 -19.761719 C 8.863281 -21.683594 10.207031 -22.566406 12.089844 -22.566406 C 14.621094 -22.566406 16.003906 -20.992188 16.308594 -18.535156 L 22.371094 -18.535156 C 21.796875 -23.332031 18.878906 -27.015625 12.28125 -27.015625 Z M 12.28125 -27.015625 "/></g></g></g><g fill="#481c4b" fill-opacity="1"><g transform="translate(100.23536, 54.848882)"><g><path d="M 33.769531 -15.886719 C 33.308594 -18.6875 31.046875 -20.992188 27.054688 -20.992188 C 25.210938 -20.992188 23.871094 -20.609375 22.679688 -19.800781 L 20.609375 -17.039062 C 19.761719 -19.304688 17.652344 -20.992188 14.238281 -20.992188 C 12.355469 -20.992188 11.050781 -20.609375 9.824219 -19.800781 L 8.289062 -17.269531 L 8.289062 -20.453125 L 2.265625 -20.453125 L 2.265625 0 L 8.289062 0 L 8.289062 -10.628906 C 8.289062 -14.8125 9.402344 -16.847656 11.703125 -16.847656 C 13.660156 -16.847656 14.699219 -15.695312 14.964844 -13.660156 C 15.082031 -12.625 15.121094 -11.511719 15.121094 -10.554688 L 15.121094 0 L 21.105469 0 L 21.105469 -10.628906 C 21.105469 -14.8125 22.257812 -16.847656 24.558594 -16.847656 C 26.480469 -16.847656 27.554688 -15.695312 27.785156 -13.660156 C 27.898438 -12.625 27.9375 -11.511719 27.9375 -10.554688 L 27.9375 0 L 33.960938 0 L 33.960938 -12.089844 C 33.960938 -13.738281 33.925781 -14.851562 33.769531 -15.886719 Z M 33.769531 -15.886719 "/></g></g></g><g fill="#481c4b" fill-opacity="1"><g transform="translate(136.231659, 54.848882)"><g><path d="M 14.199219 0 L 20.070312 0 C 19.761719 -2.265625 19.6875 -3.644531 19.6875 -5.179688 L 19.6875 -11.398438 C 19.6875 -12.585938 19.648438 -13.738281 19.570312 -14.699219 C 19.265625 -18.34375 17.078125 -20.992188 11.015625 -20.992188 C 6.023438 -20.992188 2.074219 -18.34375 1.957031 -13.660156 L 7.714844 -13.660156 C 7.867188 -15.695312 8.902344 -16.847656 10.785156 -16.847656 C 12.585938 -16.847656 13.507812 -15.847656 13.625 -14.621094 C 13.699219 -13.929688 13.699219 -13.394531 13.699219 -12.855469 L 13.699219 -12.511719 L 12.394531 -12.511719 C 5.179688 -12.511719 1.226562 -9.902344 1.226562 -5.449219 C 1.226562 -1.574219 4.335938 0.539062 7.789062 0.539062 C 9.671875 0.539062 11.398438 0.113281 12.855469 -0.804688 L 13.777344 -2.992188 Z M 10.167969 -3.605469 C 8.519531 -3.605469 7.40625 -4.414062 7.40625 -5.949219 C 7.40625 -8.328125 9.976562 -9.25 13.699219 -8.941406 L 13.699219 -7.445312 C 13.699219 -4.910156 11.972656 -3.605469 10.167969 -3.605469 Z M 10.167969 -3.605469 "/></g></g></g><g fill="#481c4b" fill-opacity="1"><g transform="translate(158.220872, 54.848882)"><g><path d="M 13.546875 -20.992188 C 12.355469 -20.992188 10.859375 -20.453125 9.824219 -19.378906 L 8.289062 -16.539062 L 8.289062 -20.453125 L 2.265625 -20.453125 L 2.265625 0 L 8.289062 0 L 8.289062 -8.558594 C 8.289062 -14.351562 10.324219 -16.269531 15.082031 -15.964844 L 15.082031 -20.839844 C 14.621094 -20.914062 14.199219 -20.992188 13.546875 -20.992188 Z M 13.546875 -20.992188 "/></g></g></g><g fill="#481c4b" fill-opacity="1"><g transform="translate(173.494355, 54.848882)"><g><path d="M 9.480469 -16.464844 L 13.816406 -16.464844 L 13.816406 -20.300781 L 9.480469 -20.300781 L 9.480469 -25.441406 L 3.453125 -25.441406 L 3.453125 -20.300781 L 0.34375 -20.300781 L 0.34375 -16.464844 L 3.453125 -16.464844 L 3.453125 -7.0625 C 3.453125 -5.910156 3.453125 -4.988281 3.53125 -3.953125 C 3.761719 -0.960938 5.21875 0.5 9.710938 0.5 C 11.015625 0.5 12.203125 0.382812 13.429688 0.191406 L 13.429688 -3.644531 C 10.363281 -3.453125 9.671875 -3.914062 9.515625 -5.949219 C 9.480469 -6.484375 9.480469 -7.175781 9.480469 -7.867188 Z M 9.480469 -16.464844 "/></g></g></g><g clip-path="url(#ea6e38256e)"><g clip-path="url(#5bdeaeef22)"><path fill="#e01d5b" d="M 198.085938 49.65625 L 204.902344 49.65625 L 204.902344 56.472656 L 198.085938 56.472656 Z M 198.085938 49.65625 " fill-opacity="1" fill-rule="nonzero"/></g></g><g fill="#481c4b" fill-opacity="1"><g transform="translate(75.396752, 81.28176)"><g><path d="M 14.964844 -27.015625 C 7.675781 -27.015625 1.996094 -21.988281 1.996094 -13.085938 C 1.996094 -4.414062 7.367188 0.539062 14.621094 0.539062 C 21.335938 0.539062 25.902344 -2.953125 26.519531 -8.941406 L 26.554688 -9.324219 L 20.53125 -9.324219 L 20.453125 -8.941406 C 19.839844 -5.792969 17.960938 -3.914062 14.851562 -3.914062 C 11.242188 -3.914062 8.328125 -6.792969 8.328125 -13.429688 C 8.328125 -19.304688 11.050781 -22.566406 14.890625 -22.566406 C 18.074219 -22.566406 19.957031 -20.914062 20.570312 -17.84375 L 20.644531 -17.460938 L 26.671875 -17.460938 L 26.632812 -17.84375 C 26.09375 -23.0625 22.296875 -27.015625 14.964844 -27.015625 Z M 14.964844 -27.015625 "/></g></g></g><g fill="#481c4b" fill-opacity="1"><g transform="translate(103.219054, 81.28176)"><g><path d="M 14.199219 0 L 20.070312 0 C 19.761719 -2.265625 19.6875 -3.644531 19.6875 -5.179688 L 19.6875 -11.398438 C 19.6875 -12.585938 19.648438 -13.738281 19.570312 -14.699219 C 19.265625 -18.34375 17.078125 -20.992188 11.015625 -20.992188 C 6.023438 -20.992188 2.074219 -18.34375 1.957031 -13.660156 L 7.714844 -13.660156 C 7.867188 -15.695312 8.902344 -16.847656 10.785156 -16.847656 C 12.585938 -16.847656 13.507812 -15.847656 13.625 -14.621094 C 13.699219 -13.929688 13.699219 -13.394531 13.699219 -12.855469 L 13.699219 -12.511719 L 12.394531 -12.511719 C 5.179688 -12.511719 1.226562 -9.902344 1.226562 -5.449219 C 1.226562 -1.574219 4.335938 0.539062 7.789062 0.539062 C 9.671875 0.539062 11.398438 0.113281 12.855469 -0.804688 L 13.777344 -2.992188 Z M 10.167969 -3.605469 C 8.519531 -3.605469 7.40625 -4.414062 7.40625 -5.949219 C 7.40625 -8.328125 9.976562 -9.25 13.699219 -8.941406 L 13.699219 -7.445312 C 13.699219 -4.910156 11.972656 -3.605469 10.167969 -3.605469 Z M 10.167969 -3.605469 "/></g></g></g><g fill="#481c4b" fill-opacity="1"><g transform="translate(125.208266, 81.28176)"><g><path d="M 21.988281 -15.351562 C 21.527344 -18.917969 19.035156 -20.992188 14.734375 -20.992188 C 12.816406 -20.992188 11.359375 -20.609375 9.976562 -19.6875 L 8.289062 -17.230469 L 8.289062 -20.453125 L 2.265625 -20.453125 L 2.265625 0 L 8.289062 0 L 8.289062 -9.480469 C 8.289062 -14.699219 10.054688 -16.847656 12.433594 -16.847656 C 14.773438 -16.847656 15.925781 -15.542969 16.078125 -13.46875 C 16.15625 -12.433594 16.15625 -11.398438 16.15625 -10.628906 L 16.15625 0 L 22.179688 0 L 22.179688 -11.550781 C 22.179688 -13.203125 22.144531 -14.3125 21.988281 -15.351562 Z M 21.988281 -15.351562 "/></g></g></g><g fill="#481c4b" fill-opacity="1"><g transform="translate(149.42326, 81.28176)"><g><path d="M 22.601562 -20.453125 L 16.078125 -20.453125 L 11.398438 -4.644531 L 6.675781 -20.453125 L 0 -20.453125 L 8.019531 0 L 14.621094 0 Z M 22.601562 -20.453125 "/></g></g></g><g fill="#481c4b" fill-opacity="1"><g transform="translate(171.872984, 81.28176)"><g><path d="M 14.199219 0 L 20.070312 0 C 19.761719 -2.265625 19.6875 -3.644531 19.6875 -5.179688 L 19.6875 -11.398438 C 19.6875 -12.585938 19.648438 -13.738281 19.570312 -14.699219 C 19.265625 -18.34375 17.078125 -20.992188 11.015625 -20.992188 C 6.023438 -20.992188 2.074219 -18.34375 1.957031 -13.660156 L 7.714844 -13.660156 C 7.867188 -15.695312 8.902344 -16.847656 10.785156 -16.847656 C 12.585938 -16.847656 13.507812 -15.847656 13.625 -14.621094 C 13.699219 -13.929688 13.699219 -13.394531 13.699219 -12.855469 L 13.699219 -12.511719 L 12.394531 -12.511719 C 5.179688 -12.511719 1.226562 -9.902344 1.226562 -5.449219 C 1.226562 -1.574219 4.335938 0.539062 7.789062 0.539062 C 9.671875 0.539062 11.398438 0.113281 12.855469 -0.804688 L 13.777344 -2.992188 Z M 10.167969 -3.605469 C 8.519531 -3.605469 7.40625 -4.414062 7.40625 -5.949219 C 7.40625 -8.328125 9.976562 -9.25 13.699219 -8.941406 L 13.699219 -7.445312 C 13.699219 -4.910156 11.972656 -3.605469 10.167969 -3.605469 Z M 10.167969 -3.605469 "/></g></g></g><g fill="#481c4b" fill-opacity="1"><g transform="translate(193.862196, 81.28176)"><g><path d="M 10.09375 -20.992188 C 4.949219 -20.992188 1.574219 -18.535156 1.574219 -14.542969 C 1.574219 -11.050781 4.066406 -9.324219 7.90625 -8.367188 C 11.511719 -7.523438 12.816406 -6.714844 12.816406 -5.257812 C 12.816406 -3.953125 11.667969 -3.339844 10.207031 -3.339844 C 8.519531 -3.339844 7.136719 -4.375 6.714844 -6.292969 L 0.765625 -6.292969 C 1.304688 -1.6875 4.949219 0.539062 10.167969 0.539062 C 14.964844 0.539062 18.84375 -1.457031 18.84375 -5.71875 C 18.84375 -9.554688 16.308594 -11.207031 12.355469 -12.203125 C 8.710938 -13.125 7.597656 -13.890625 7.597656 -15.273438 C 7.597656 -16.347656 8.402344 -17.152344 9.710938 -17.152344 C 11.207031 -17.152344 12.089844 -16.195312 12.433594 -14.507812 L 18.382812 -14.507812 C 17.882812 -18.226562 15.042969 -20.992188 10.09375 -20.992188 Z M 10.09375 -20.992188 "/></g></g></g></svg>